<svg xmlns="http://www.w3.org/2000/svg" viewBox="0 0 1600 700" role="img" aria-labelledby="title desc">
  <title id="title">Olympic Sports Banner</title>
  <desc id="desc">Stylized Olympic sports scene with athletes and Olympic rings.</desc>
  <defs>
    <linearGradient id="bg" x1="0" y1="0" x2="1" y2="1">
      <stop offset="0%" stop-color="#0f172a" />
      <stop offset="50%" stop-color="#1e293b" />
      <stop offset="100%" stop-color="#111827" />
    </linearGradient>
    <linearGradient id="track" x1="0" y1="0" x2="1" y2="0">
      <stop offset="0%" stop-color="#0ea5e9" stop-opacity="0.7" />
      <stop offset="100%" stop-color="#22d3ee" stop-opacity="0.35" />
    </linearGradient>
  </defs>

  <rect width="1600" height="700" fill="url(#bg)" />

  <g opacity="0.2" fill="none" stroke="#94a3b8" stroke-width="2">
    <path d="M0 530 Q 280 470 580 530 T 1200 530 T 1600 530" />
    <path d="M0 580 Q 280 520 580 580 T 1200 580 T 1600 580" />
    <path d="M0 630 Q 280 570 580 630 T 1200 630 T 1600 630" />
  </g>

  <path d="M0 500 C 180 430 360 420 560 470 C 780 530 980 510 1220 450 C 1360 415 1480 415 1600 440 L1600 700 L0 700 Z" fill="url(#track)" />

  <g transform="translate(250,280)" fill="#e2e8f0" opacity="0.95">
    <circle cx="0" cy="-95" r="24" />
    <path d="M-8 -64 L45 -20 L78 -38 L92 -18 L55 2 L70 53 L40 63 L22 14 L-20 41 L-38 22 L8 -12 L-12 -54 Z" />
  </g>

  <g transform="translate(850,300)" fill="#f8fafc" opacity="0.92">
    <circle cx="0" cy="-95" r="24" />
    <path d="M-5 -62 L45 -22 L30 15 L72 65 L52 82 L8 30 L-34 68 L-54 51 L-4 5 L-38 -30 Z" />
  </g>

  <g transform="translate(1320,300)" fill="#e5e7eb" opacity="0.9">
    <circle cx="0" cy="-95" r="24" />
    <path d="M-7 -62 L30 -26 L60 -48 L76 -30 L42 -8 L56 40 L28 49 L16 2 L-30 31 L-46 14 L-4 -17 L-24 -50 Z" />
  </g>

  <g transform="translate(800,540)" fill="none" stroke-width="16" opacity="0.95">
    <circle cx="-170" cy="0" r="60" stroke="#3b82f6" />
    <circle cx="-40" cy="0" r="60" stroke="#111827" />
    <circle cx="90" cy="0" r="60" stroke="#ef4444" />
    <circle cx="-105" cy="55" r="60" stroke="#fbbf24" />
    <circle cx="25" cy="55" r="60" stroke="#22c55e" />
  </g>
</svg>
