<svg width="1600" height="900" viewBox="0 0 1600 900" fill="none" xmlns="http://www.w3.org/2000/svg">
  <rect width="1600" height="900" rx="28" fill="#F6F7F8"/>
  <rect x="40" y="40" width="1520" height="820" rx="24" fill="white"/>

  <rect x="76" y="86" width="260" height="728" rx="18" fill="#111111"/>
  <rect x="104" y="122" width="110" height="18" rx="9" fill="#F4F4F4"/>
  <rect x="104" y="188" width="208" height="12" rx="6" fill="#D1D1D1"/>
  <rect x="104" y="224" width="180" height="12" rx="6" fill="#BCBCBC"/>
  <rect x="104" y="260" width="208" height="12" rx="6" fill="#D1D1D1"/>
  <rect x="104" y="296" width="160" height="12" rx="6" fill="#BCBCBC"/>
  <rect x="104" y="332" width="208" height="12" rx="6" fill="#D1D1D1"/>
  <rect x="104" y="368" width="190" height="12" rx="6" fill="#BCBCBC"/>

  <rect x="370" y="86" width="1154" height="86" rx="18" fill="#FCFCFC" stroke="#ECECEC"/>
  <rect x="406" y="116" width="260" height="16" rx="8" fill="#111111"/>
  <rect x="406" y="142" width="188" height="10" rx="5" fill="#A3A3A3"/>
  <rect x="1348" y="114" width="140" height="32" rx="16" fill="#111111"/>
  <rect x="1386" y="126" width="64" height="8" rx="4" fill="#FFFFFF"/>

  <rect x="370" y="194" width="370" height="172" rx="18" fill="#FAFAFA" stroke="#EEEEEE"/>
  <rect x="402" y="228" width="156" height="10" rx="5" fill="#A3A3A3"/>
  <rect x="402" y="248" width="96" height="30" rx="15" fill="#111111"/>
  <rect x="428" y="259" width="44" height="8" rx="4" fill="#FFFFFF"/>
  <rect x="402" y="300" width="306" height="8" rx="4" fill="#D6D6D6"/>
  <rect x="402" y="318" width="266" height="8" rx="4" fill="#E3E3E3"/>

  <rect x="758" y="194" width="370" height="172" rx="18" fill="#FAFAFA" stroke="#EEEEEE"/>
  <rect x="790" y="228" width="148" height="10" rx="5" fill="#A3A3A3"/>
  <path d="M790 322L842 286L888 298L936 252L990 270L1040 224" stroke="#111111" stroke-width="4" stroke-linecap="round" stroke-linejoin="round"/>
  <circle cx="842" cy="286" r="7" fill="#111111"/>
  <circle cx="936" cy="252" r="7" fill="#111111"/>
  <circle cx="1040" cy="224" r="7" fill="#111111"/>

  <rect x="1146" y="194" width="378" height="172" rx="18" fill="#FAFAFA" stroke="#EEEEEE"/>
  <rect x="1178" y="228" width="150" height="10" rx="5" fill="#A3A3A3"/>
  <rect x="1178" y="254" width="316" height="16" rx="8" fill="#E8E8E8"/>
  <rect x="1178" y="278" width="286" height="16" rx="8" fill="#F0F0F0"/>
  <rect x="1178" y="302" width="296" height="16" rx="8" fill="#E8E8E8"/>
  <rect x="1178" y="326" width="256" height="16" rx="8" fill="#F0F0F0"/>

  <rect x="370" y="384" width="1154" height="430" rx="18" fill="#FAFAFA" stroke="#EEEEEE"/>
  <rect x="402" y="416" width="190" height="12" rx="6" fill="#A3A3A3"/>

  <rect x="402" y="454" width="1090" height="92" rx="14" fill="#FFFFFF" stroke="#EFEFEF"/>
  <rect x="430" y="486" width="70" height="10" rx="5" fill="#BDBDBD"/>
  <rect x="544" y="480" width="220" height="12" rx="6" fill="#111111"/>
  <rect x="1280" y="480" width="180" height="12" rx="6" fill="#A3A3A3"/>

  <rect x="402" y="562" width="1090" height="92" rx="14" fill="#FFFFFF" stroke="#EFEFEF"/>
  <rect x="430" y="594" width="70" height="10" rx="5" fill="#BDBDBD"/>
  <rect x="544" y="588" width="220" height="12" rx="6" fill="#111111"/>
  <rect x="1280" y="588" width="180" height="12" rx="6" fill="#A3A3A3"/>

  <rect x="402" y="670" width="1090" height="92" rx="14" fill="#FFFFFF" stroke="#EFEFEF"/>
  <rect x="430" y="702" width="70" height="10" rx="5" fill="#BDBDBD"/>
  <rect x="544" y="696" width="220" height="12" rx="6" fill="#111111"/>
  <rect x="1280" y="696" width="180" height="12" rx="6" fill="#A3A3A3"/>
</svg>
